<?xml version="1.0" standalone="no"?>
<!DOCTYPE svg PUBLIC "-//W3C//DTD SVG 20010904//EN"
 "http://www.w3.org/TR/2001/REC-SVG-20010904/DTD/svg10.dtd">
<svg version="1.0" xmlns="http://www.w3.org/2000/svg"
 width="700.000000pt" height="700.000000pt" viewBox="0 0 700.000000 700.000000"
 preserveAspectRatio="xMidYMid meet">
<metadata>
Created by potrace 1.14, written by Peter Selinger 2001-2017
</metadata>
<g transform="translate(0.000000,700.000000) scale(0.100000,-0.100000)"
fill="#000000" stroke="none">
<path d="M3307 6994 c-1 -1 -40 -4 -87 -8 -47 -4 -96 -8 -110 -10 -14 -3 -45
-7 -70 -10 -46 -6 -83 -12 -135 -21 -64 -12 -81 -15 -105 -21 -14 -3 -36 -8
-50 -11 -60 -10 -254 -66 -360 -101 -380 -130 -760 -335 -1055 -571 -232 -186
-482 -440 -620 -631 -21 -30 -42 -57 -46 -60 -3 -3 -38 -52 -76 -110 -279
-417 -462 -873 -543 -1352 -22 -134 -25 -152 -37 -288 -15 -162 -8 -605 11
-707 2 -10 7 -43 10 -74 4 -31 9 -67 11 -80 3 -13 7 -37 9 -54 15 -103 74
-332 127 -490 395 -1172 1385 -2051 2603 -2315 125 -27 152 -32 256 -45 25 -3
59 -8 75 -11 173 -26 673 -26 835 0 14 2 50 7 80 11 30 4 62 8 70 10 8 1 31 5
50 9 19 3 46 8 60 11 14 3 39 8 55 11 17 3 75 16 130 30 55 14 105 27 110 28
57 14 217 68 330 113 272 107 547 259 779 428 113 82 153 114 271 214 132 114
367 369 483 526 28 39 55 75 60 80 23 29 127 193 180 286 153 266 271 557 342
844 17 66 34 135 39 153 16 58 6 128 -23 167 -51 66 -41 65 -629 65 l-530 0
-44 -25 c-48 -29 -60 -48 -93 -150 -103 -317 -284 -610 -525 -850 -100 -100
-179 -170 -245 -215 -19 -14 -43 -32 -53 -40 -54 -46 -268 -166 -410 -229
-370 -166 -832 -225 -1257 -160 -370 56 -765 233 -1055 474 -461 381 -739 907
-792 1495 -12 141 -7 351 13 495 55 404 246 827 515 1140 132 153 360 347 529
451 251 154 580 273 825 300 28 3 56 7 62 9 7 2 72 7 145 10 163 7 205 21 244
77 l29 41 1 516 c1 541 0 554 -43 599 -41 43 -74 51 -212 49 -72 0 -133 -2
-134 -3z"/>
</g>
</svg>
